<mxfile host="app.diagrams.net" agent="Mozilla/5.0 (Windows NT 10.0; Win64; x64) AppleWebKit/537.36 (KHTML, like Gecko) Chrome/134.0.0.0 Safari/537.36" version="26.2.5">
  <diagram name="PÃ¡gina-1" id="aRBsKIMeUlun-SupgtHS">
    <mxGraphModel dx="927" dy="491" grid="1" gridSize="10" guides="1" tooltips="1" connect="1" arrows="1" fold="1" page="1" pageScale="1" pageWidth="827" pageHeight="1169" math="0" shadow="0">
      <root>
        <mxCell id="0" />
        <mxCell id="1" parent="0" />
        <mxCell id="hWvhuzEgCgVdA3fSKY0R-1" value="" style="swimlane;startSize=0;" vertex="1" parent="1">
          <mxGeometry x="40" y="40" width="170" height="460" as="geometry">
            <mxRectangle x="10" y="10" width="50" height="40" as="alternateBounds" />
          </mxGeometry>
        </mxCell>
        <mxCell id="hWvhuzEgCgVdA3fSKY0R-7" style="edgeStyle=orthogonalEdgeStyle;rounded=0;orthogonalLoop=1;jettySize=auto;html=1;" edge="1" parent="hWvhuzEgCgVdA3fSKY0R-1" source="hWvhuzEgCgVdA3fSKY0R-2" target="hWvhuzEgCgVdA3fSKY0R-3">
          <mxGeometry relative="1" as="geometry" />
        </mxCell>
        <mxCell id="hWvhuzEgCgVdA3fSKY0R-2" value="UI" style="shape=module;align=left;spacingLeft=20;align=center;verticalAlign=top;whiteSpace=wrap;html=1;" vertex="1" parent="hWvhuzEgCgVdA3fSKY0R-1">
          <mxGeometry x="30" y="40" width="100" height="50" as="geometry" />
        </mxCell>
        <mxCell id="hWvhuzEgCgVdA3fSKY0R-8" style="edgeStyle=orthogonalEdgeStyle;rounded=0;orthogonalLoop=1;jettySize=auto;html=1;" edge="1" parent="hWvhuzEgCgVdA3fSKY0R-1" source="hWvhuzEgCgVdA3fSKY0R-3" target="hWvhuzEgCgVdA3fSKY0R-4">
          <mxGeometry relative="1" as="geometry" />
        </mxCell>
        <mxCell id="hWvhuzEgCgVdA3fSKY0R-3" value="Controlador" style="shape=module;align=left;spacingLeft=20;align=center;verticalAlign=top;whiteSpace=wrap;html=1;" vertex="1" parent="hWvhuzEgCgVdA3fSKY0R-1">
          <mxGeometry x="30" y="120" width="100" height="50" as="geometry" />
        </mxCell>
        <mxCell id="hWvhuzEgCgVdA3fSKY0R-9" style="edgeStyle=orthogonalEdgeStyle;rounded=0;orthogonalLoop=1;jettySize=auto;html=1;entryX=0.5;entryY=0;entryDx=0;entryDy=0;" edge="1" parent="hWvhuzEgCgVdA3fSKY0R-1" source="hWvhuzEgCgVdA3fSKY0R-4" target="hWvhuzEgCgVdA3fSKY0R-5">
          <mxGeometry relative="1" as="geometry" />
        </mxCell>
        <mxCell id="hWvhuzEgCgVdA3fSKY0R-4" value="Servicios" style="shape=module;align=left;spacingLeft=20;align=center;verticalAlign=top;whiteSpace=wrap;html=1;" vertex="1" parent="hWvhuzEgCgVdA3fSKY0R-1">
          <mxGeometry x="30" y="200" width="100" height="50" as="geometry" />
        </mxCell>
        <mxCell id="hWvhuzEgCgVdA3fSKY0R-10" value="" style="edgeStyle=orthogonalEdgeStyle;rounded=0;orthogonalLoop=1;jettySize=auto;html=1;" edge="1" parent="hWvhuzEgCgVdA3fSKY0R-1" source="hWvhuzEgCgVdA3fSKY0R-5" target="hWvhuzEgCgVdA3fSKY0R-6">
          <mxGeometry relative="1" as="geometry" />
        </mxCell>
        <mxCell id="hWvhuzEgCgVdA3fSKY0R-5" value="Modelo" style="shape=module;align=left;spacingLeft=20;align=center;verticalAlign=top;whiteSpace=wrap;html=1;" vertex="1" parent="hWvhuzEgCgVdA3fSKY0R-1">
          <mxGeometry x="30" y="280" width="100" height="50" as="geometry" />
        </mxCell>
        <mxCell id="hWvhuzEgCgVdA3fSKY0R-6" value="Base de datos Local" style="shape=module;align=left;spacingLeft=20;align=center;verticalAlign=top;whiteSpace=wrap;html=1;" vertex="1" parent="hWvhuzEgCgVdA3fSKY0R-1">
          <mxGeometry x="30" y="360" width="100" height="50" as="geometry" />
        </mxCell>
        <mxCell id="hWvhuzEgCgVdA3fSKY0R-11" value="" style="swimlane;startSize=0;" vertex="1" parent="1">
          <mxGeometry x="280" y="40" width="170" height="360" as="geometry">
            <mxRectangle x="10" y="10" width="50" height="40" as="alternateBounds" />
          </mxGeometry>
        </mxCell>
        <mxCell id="hWvhuzEgCgVdA3fSKY0R-12" style="edgeStyle=orthogonalEdgeStyle;rounded=0;orthogonalLoop=1;jettySize=auto;html=1;" edge="1" parent="hWvhuzEgCgVdA3fSKY0R-11" source="hWvhuzEgCgVdA3fSKY0R-13" target="hWvhuzEgCgVdA3fSKY0R-15">
          <mxGeometry relative="1" as="geometry" />
        </mxCell>
        <mxCell id="hWvhuzEgCgVdA3fSKY0R-13" value="API" style="shape=module;align=left;spacingLeft=20;align=center;verticalAlign=top;whiteSpace=wrap;html=1;" vertex="1" parent="hWvhuzEgCgVdA3fSKY0R-11">
          <mxGeometry x="30" y="40" width="100" height="50" as="geometry" />
        </mxCell>
        <mxCell id="hWvhuzEgCgVdA3fSKY0R-14" style="edgeStyle=orthogonalEdgeStyle;rounded=0;orthogonalLoop=1;jettySize=auto;html=1;" edge="1" parent="hWvhuzEgCgVdA3fSKY0R-11" source="hWvhuzEgCgVdA3fSKY0R-15" target="hWvhuzEgCgVdA3fSKY0R-17">
          <mxGeometry relative="1" as="geometry" />
        </mxCell>
        <mxCell id="hWvhuzEgCgVdA3fSKY0R-15" value="Controlador" style="shape=module;align=left;spacingLeft=20;align=center;verticalAlign=top;whiteSpace=wrap;html=1;" vertex="1" parent="hWvhuzEgCgVdA3fSKY0R-11">
          <mxGeometry x="30" y="120" width="100" height="50" as="geometry" />
        </mxCell>
        <mxCell id="hWvhuzEgCgVdA3fSKY0R-16" style="edgeStyle=orthogonalEdgeStyle;rounded=0;orthogonalLoop=1;jettySize=auto;html=1;entryX=0.5;entryY=0;entryDx=0;entryDy=0;" edge="1" parent="hWvhuzEgCgVdA3fSKY0R-11" source="hWvhuzEgCgVdA3fSKY0R-17" target="hWvhuzEgCgVdA3fSKY0R-19">
          <mxGeometry relative="1" as="geometry" />
        </mxCell>
        <mxCell id="hWvhuzEgCgVdA3fSKY0R-17" value="Servicios" style="shape=module;align=left;spacingLeft=20;align=center;verticalAlign=top;whiteSpace=wrap;html=1;" vertex="1" parent="hWvhuzEgCgVdA3fSKY0R-11">
          <mxGeometry x="30" y="200" width="100" height="50" as="geometry" />
        </mxCell>
        <mxCell id="hWvhuzEgCgVdA3fSKY0R-19" value="Base de datos" style="shape=module;align=left;spacingLeft=20;align=center;verticalAlign=top;whiteSpace=wrap;html=1;" vertex="1" parent="hWvhuzEgCgVdA3fSKY0R-11">
          <mxGeometry x="30" y="280" width="100" height="50" as="geometry" />
        </mxCell>
        <mxCell id="hWvhuzEgCgVdA3fSKY0R-23" style="edgeStyle=orthogonalEdgeStyle;rounded=0;orthogonalLoop=1;jettySize=auto;html=1;entryX=0;entryY=0;entryDx=0;entryDy=15;entryPerimeter=0;" edge="1" parent="1" source="hWvhuzEgCgVdA3fSKY0R-4" target="hWvhuzEgCgVdA3fSKY0R-13">
          <mxGeometry relative="1" as="geometry" />
        </mxCell>
      </root>
    </mxGraphModel>
  </diagram>
</mxfile>
